<?xml version="1.0" encoding="UTF-8" standalone="no"?>
<svg
   version="1.1"
   width="1024"
   height="1024"
   id="svg46"
   sodipodi:docname="Gemini_Generated_Image_yl5hsnyl5hsnyl5h.svg"
   inkscape:version="1.4.2 (f4327f4, 2025-05-13)"
   xmlns:inkscape="http://www.inkscape.org/namespaces/inkscape"
   xmlns:sodipodi="http://sodipodi.sourceforge.net/DTD/sodipodi-0.dtd"
   xmlns:xlink="http://www.w3.org/1999/xlink"
   xmlns="http://www.w3.org/2000/svg"
   xmlns:svg="http://www.w3.org/2000/svg">
  <defs
     id="defs46" />
  <sodipodi:namedview
     id="namedview46"
     pagecolor="#ffffff"
     bordercolor="#000000"
     borderopacity="0.25"
     inkscape:showpageshadow="2"
     inkscape:pageopacity="0.0"
     inkscape:pagecheckerboard="0"
     inkscape:deskcolor="#d1d1d1"
     showguides="true"
     inkscape:zoom="0.41552734"
     inkscape:cx="1165.9882"
     inkscape:cy="70.994125"
     inkscape:window-width="1920"
     inkscape:window-height="1111"
     inkscape:window-x="-9"
     inkscape:window-y="-9"
     inkscape:window-maximized="1"
     inkscape:current-layer="svg46" />
  <g
     id="g53"
     transform="matrix(1.3782262,0,0,1.3783382,-193.9798,-194.02179)">
    <path
       d="M 0,0 C 0.79363449,-0.00705963 1.587269,-0.01411926 2.404953,-0.02139282 89.875233,-0.61849578 173.9628,25.156507 242.88672,80.203125 c 1.39412,1.104082 1.39412,1.104082 2.8164,2.230469 6.02559,4.842756 11.74455,9.954759 17.40625,15.210937 2.26665,2.088122 4.56068,4.118659 6.90235,6.121099 7.55769,6.5678 14.38905,13.82524 20.875,21.4375 0.89095,1.01647 1.78297,2.03202 2.67578,3.04687 22.0198,25.15716 39.26617,53.2026 54.32422,82.95312 0.38043,0.74476 0.76087,1.48952 1.15283,2.25684 41.43559,81.70233 45.62756,183.25972 18.03516,269.82031 -20.67486,62.98313 -57.11177,121.12268 -107.18799,164.92285 -1.04955,0.93613 -2.09902,1.87233 -3.14844,2.8086 -14.87438,13.13467 -30.94467,24.81954 -47.85156,35.1914 -0.67563,0.41557 -1.35126,0.83113 -2.04736,1.25928 -4.9298,3.01142 -9.91809,5.90825 -14.95264,8.74072 -0.76699,0.43281 -1.53399,0.86561 -2.32422,1.31153 -14.34865,8.01113 -29.26273,14.33851 -44.50342,20.42016 -1.9901,0.79565 -3.97672,1.60014 -5.95801,2.41748 -5.17156,2.12466 -10.3088,3.86696 -15.71435,5.28833 -1.59132,0.42646 -3.18246,0.85356 -4.77344,1.28125 -0.79503,0.2127 -1.59006,0.4254 -2.40918,0.64454 -2.13064,0.58541 -4.2436,1.20921 -6.35644,1.85546 -9.90028,2.9847 -19.933203,5.05899 -30.085941,6.96875 -0.666788,0.12656 -1.333576,0.25312 -2.020569,0.38352 -58.135218,10.9615 -120.675661,7.24449 -176.854431,-11.57102 -1.090059,-0.35932 -2.180129,-0.71865 -3.303219,-1.08886 -44.58937,-14.83591 -85.79846,-37.54803 -121.69678,-67.91114 -1.41539,-1.13888 -1.41539,-1.13888 -2.85938,-2.30078 -8.6544,-7.06081 -16.54643,-14.88859 -24.45312,-22.76172 -0.55963,-0.55444 -1.11925,-1.10889 -1.69583,-1.68014 -7.13682,-7.08478 -13.75679,-14.34965 -19.99167,-22.25736 -1.00086,-1.21995 -2.00437,-2.43774 -3.01172,-3.65234 -13.68266,-16.71323 -25.40315,-34.5347 -35.98828,-53.34766 -0.44827,-0.79196 -0.89654,-1.58393 -1.3584,-2.3999 -15.5303,-27.68062 -27.64859,-58.63187 -34.6416,-89.6001 -0.24202,-1.0414 -0.48404,-2.0828 -0.7334,-3.15576 -4.18275,-18.18127 -6.82243,-36.24882 -8.2666,-54.84424 -0.0943,-1.19455 -0.18853,-2.38911 -0.28565,-3.61987 -0.66976,-9.1473 -0.95416,-18.27351 -0.96435,-27.44263 -0.002,-1.08776 -0.002,-1.08776 -0.004,-2.1975 0.008,-20.59685 1.8772,-41.20244 5.8063,-61.43433 0.32096,-1.65274 0.63273,-3.30727 0.93848,-4.96289 3.00053,-16.17458 7.30302,-31.74365 12.50928,-47.34278 0.3184,-0.95648 0.6368,-1.91296 0.96484,-2.89843 14.06743,-41.67694 36.23007,-80.11322 64.03516,-114.10157 0.43731,-0.54172 0.87463,-1.08345 1.32519,-1.6416 7.68834,-9.46041 16.20947,-18.10138 24.79981,-26.73339 0.55286,-0.55813 1.10571,-1.11625 1.67532,-1.69129 7.07659,-7.128639 14.32082,-13.69012 22.19968,-19.933715 1.02773,-0.863167 2.05114,-1.731572 3.06641,-2.609375 39.52206,-33.89373 88.68702,-58.299029 138.933589,-71.390625 0.777627,-0.204316 1.555254,-0.408633 2.356445,-0.619141 21.179256,-5.4875408 42.427169,-8.7451637 64.253662,-10.1472164 2.389911,-0.184836 2.389911,-0.184836 4.688721,-0.74560549 C -7.2111312,0.04012807 -3.6494448,0.02148598 0,0 Z m -192.11328,110.20313 c -1.01063,0.79921 -2.02125,1.59843 -3.0625,2.42187 -6.38874,5.11825 -12.42009,10.59263 -18.4082,16.1665 -1.53388,1.41585 -3.08318,2.81255 -4.63868,4.20459 -6.3856,5.7298 -12.28342,11.70457 -17.89062,18.20703 -0.90931,1.02419 -1.81952,2.04759 -2.73047,3.07032 -13.89533,15.73267 -25.67549,32.83153 -36.26953,50.92968 -0.51305,0.87496 -1.02609,1.74991 -1.55469,2.65137 -27.75681,47.85233 -43.02935,103.64926 -42.69531,158.97363 0.003,0.91876 0.006,1.83752 0.009,2.78412 0.19815,50.17816 10.09155,99.32868 32.2406,144.59088 0.46213,0.95407 0.92426,1.90814 1.40039,2.89112 10.31964,21.1228 22.78386,40.84397 37.59961,59.10888 0.72058,0.91137 1.44117,1.82274 2.18359,2.76172 14.03139,17.53299 30.05201,34.48109 47.81641,48.23828 1.05508,0.87531 2.10697,1.75447 3.15625,2.63672 16.48572,13.74356 34.7289,25.61479 53.84375,35.36328 0.97743,0.50097 1.95486,1.00193 2.96191,1.51807 35.29057,17.92511 71.818169,29.12856 111.038089,34.48193 0.946494,0.13133 1.892988,0.26265 2.868164,0.39795 60.586532,7.99079 124.320297,-4.31945 179.131837,-30.39795 1.15145,-0.53995 1.15145,-0.53995 2.32617,-1.09082 26.50751,-12.50131 50.67563,-28.57838 72.67383,-47.90918 0.79019,-0.69093 1.58039,-1.38187 2.39453,-2.09375 1.31943,-1.15541 2.63625,-2.31381 3.94922,-3.47656 1.50732,-1.30113 3.07918,-2.52653 4.65625,-3.74219 0.66,-0.55687 1.32,-1.11374 2,-1.6875 0,-0.65999 0,-1.32 0,-2 0.81598,-0.3113 0.81598,-0.3113 1.64844,-0.6289 3.24477,-1.89189 5.50327,-4.53456 7.97656,-7.3086 1.07682,-1.1914 2.15364,-2.38281 3.23047,-3.57421 0.53286,-0.59346 1.06573,-1.18691 1.61474,-1.79834 1.34192,-1.48241 2.70929,-2.94169 4.08057,-4.39698 7.45661,-7.94476 13.9647,-16.54949 20.44922,-25.29297 0.46471,-0.62342 0.92941,-1.24684 1.4082,-1.88916 6.46211,-8.70576 12.21515,-17.69959 17.5918,-27.11084 0.45633,-0.78842 0.91265,-1.57684 1.38281,-2.38916 18.40222,-31.95171 30.54541,-66.48259 37.61719,-102.61084 0.31842,-1.53918 0.63736,-3.07826 0.95703,-4.61718 0.82407,-4.11018 1.48366,-8.22864 2.04297,-12.38282 0.10296,-0.76457 0.20593,-1.52915 0.31201,-2.31689 3.77254,-30.12671 3.82642,-62.75128 -1.31201,-92.68311 -0.18756,-1.10343 -0.37512,-2.20687 -0.56836,-3.34375 -5.5574,-31.94156 -14.9847,-62.61436 -29.43164,-91.65625 -0.44457,-0.9054 -0.88913,-1.81081 -1.34717,-2.74365 -12.96475,-26.24687 -29.83561,-50.32621 -49.55518,-71.93994 -1.80357,-1.99165 -3.54871,-4.01662 -5.28515,-6.06641 -7.95891,-9.1038 -16.63889,-17.63215 -26.12891,-25.12499 -2.81026,-2.22531 -5.52299,-4.54412 -8.24609,-6.875 C 185.3628,82.554699 142.74073,62.685908 97.886719,50.203125 c -1.34554,-0.374634 -1.34554,-0.374634 -2.718262,-0.756836 -14.112132,-3.835946 -28.42696,-5.919926 -42.915771,-7.784668 -2.21947,-0.302326 -4.434773,-0.63728 -6.644043,-1.006836 -10.083467,-1.651102 -19.972398,-1.766287 -30.159424,-1.70166 -1.327004,0.0052 -1.327004,0.0052 -2.680817,0.01041 -74.040065,0.336611 -147.020862,24.550557 -204.881682,71.239595 z"
       fill="#3B614A"
       id="path3"
       style="fill:#57dc6a;fill-opacity:1"
       transform="translate(499.11328,140.79687)" />
    <g
       id="g50"
       style="display:inline">
      <path
         d="m 0,0 c 3.3,1.65 6.6,3.3 10,5 2.184901,1.0082955 2.184901,1.0082955 4.41394,2.0369606 10.206378,5.0941234 10.206378,5.0941234 12.479279,9.8204034 1.431213,5.357315 1.088644,10.822563 0.888031,16.313534 -0.0078,1.830937 -0.0083,3.661916 -0.0023,5.492859 -0.0022,3.92954 -0.05461,7.854009 -0.146591,11.782463 -0.145091,6.221919 -0.175593,12.441282 -0.191193,18.664681 -0.03796,9.851068 -0.150474,19.699613 -0.29581,29.549631 -0.259367,17.616178 -0.429827,35.232868 -0.516368,52.850738 -0.03376,6.17417 -0.112095,12.34566 -0.227425,18.51883 -0.06475,3.8552 -0.09635,7.7102 -0.120128,11.56585 -0.01799,1.7746 -0.04977,3.54912 -0.09712,5.32318 -0.285089,10.98205 0.919078,18.30714 7.189573,27.48007 0.804926,1.2874 0.804926,1.2874 1.626114,2.6008 -0.33,0.66 -0.66,1.32 -1,2 -0.593855,-0.2902 -1.18771,-0.5804 -1.799561,-0.87939 -25.6393898,-12.42169 -52.448673,-23.5773 -80.113037,-30.58985 -1.997987,-0.50802 -3.986419,-1.04262 -5.974121,-1.58935 C -57.584066,184.93161 -61.289848,183.96161 -65,183 c -0.713496,-0.18917 -1.426992,-0.37834 -2.162109,-0.57324 C -95.397543,174.95267 -124.10863,170.95612 -153,167 c 2.97577,-1.98385 5.22531,-2.74854 8.625,-3.75 9.15309,-2.99938 15.28346,-7.03784 20.375,-15.25 1.64819,2.1191 3.04569,4.09137 4.25,6.5 7.37114,10.5302 27.362601,11.61267 39.217529,13.79248 2.466325,0.45684 4.927853,0.93522 7.389893,1.41455 10.562208,1.9966 21.529775,3.90023 32.210449,1.64526 3.554358,-0.42705 5.295109,0.26221 8.529785,1.74537 1.049942,0.47244 2.099883,0.94488 3.181641,1.43164 1.625185,0.75893 1.625185,0.75893 3.283203,1.5332 1.056387,0.47889 2.112773,0.95777 3.201172,1.45117 3.253283,1.47913 6.494999,2.98117 9.736328,4.48633 4.29,1.98 8.58,3.96 13,6 C 0,125.96 0,63.92 0,0 Z"
         fill="#c07156"
         transform="translate(707,479)"
         id="path8" />
      <path
         d="m 0,0 c 14.663657,-1.0680702 14.663657,-1.0680702 18.663574,1.8149414 1.449219,2.0742188 1.449219,2.0742188 2.570313,4.2773438 2.353863,4.1674948 7.031899,6.0296218 11.191406,8.1093748 10.355366,0.780813 18.706812,0.487703 26.875,-6.4374998 2.190442,-2.4433684 2.190442,-2.4433684 3.4375,-5.1953125 1.6875,-2.36718754 1.6875,-2.36718754 3.945312,-2.92578129 6.362126,0.26870013 6.362126,0.26870013 8.48877,0.40966797 1.575637,0.104132 3.152318,0.19306425 4.729492,0.27050781 C 147.68985,3.6749444 222.24722,23.186014 276.42529,65.20166 c -0.66,0.33 -1.32,0.66 -2,1 -1.87817,-0.629883 -1.87817,-0.629883 -4.20703,-1.703125 -0.8818,-0.397998 -1.7636,-0.795996 -2.67212,-1.206055 -1.45201,-0.663706 -1.45201,-0.663706 -2.93335,-1.34082 -20.08585,-8.931308 -40.40197,-16.787994 -61.74414,-22.123535 -3.08431,-0.790802 -6.13812,-1.67243 -9.19604,-2.558838 -10.37894,-2.993412 -20.88725,-5.290272 -31.46021,-7.485596 -2.56229,-0.535082 -5.12017,-1.087356 -7.67773,-1.644531 -14.58377,-3.116073 -29.32703,-5.027008 -44.10938,-6.9375 -0.88929,-0.116177 -1.77858,-0.232353 -2.69482,-0.352051 -4.43193,-0.577679 -8.866112,-1.127318 -13.305177,-1.647949 -0.920391,-0.112148 -1.840781,-0.224297 -2.789063,-0.339844 -2.402602,-0.271501 -4.800183,-0.476859 -7.210937,-0.660156 -0.913945,-0.100547 -1.827891,-0.201094 -2.769531,-0.304687 -5.489714,-0.39013 -5.489714,-0.39013 -10.421875,1.726562 -1.335849,1.223439 -2.643594,2.478252 -3.921875,3.761719 -7.883528,7.589732 -19.469093,8.208891 -29.845948,8.187012 C 27.112432,31.281371 18.47032,27.606937 10.425293,21.20166 10.054043,20.684182 9.682793,20.166704 9.300293,19.633545 6.3428,17.374991 3.1554304,17.760744 -0.41455078,17.82666 -1.605637,17.83971 -1.605637,17.83971 -2.8207855,17.85303 c -9.8854975,0.234134 -19.5715615,1.774893 -29.3164215,3.348633 -2.015612,0.31722 -4.031238,0.634357 -6.046875,0.951416 -45.597499,7.25843 -89.992598,17.051466 -132.890628,34.486084 -1.18465,0.477598 -2.36929,0.955195 -3.58984,1.447266 -4.97149,2.020188 -9.87521,4.029484 -14.62891,6.52539 -1.08281,0.524649 -2.16562,1.049297 -3.28125,1.589844 -0.66,-0.33 -1.32,-0.66 -2,-1 8.90085,-7.18972 18.01208,-13.419992 28,-19 0.75217,-0.42394 1.50434,-0.847881 2.2793,-1.284668 C -114.30473,16.993627 -56.682217,4.4395516 0,0 Z"
         fill="#3d644d"
         transform="translate(471.57471,662.79834)"
         id="path10" />
      <path
         d="m 0,0 c 0,61.71 0,123.42 0,187 7.92,-3.63 15.84,-7.26 24,-11 4,2 4,2 5.907227,3.10742 7.917135,3.3767 18.361573,0.3095 26.342773,-1.60742 1.140981,-0.26482 2.281963,-0.52964 3.45752,-0.80249 3.106214,-0.72754 6.208655,-1.46891 9.309448,-2.21918 2.045721,-0.49345 4.092812,-0.98086 6.140259,-1.4671 3.549453,-0.84437 7.095743,-1.70103 10.640014,-2.56689 1.361832,-0.3322 2.724203,-0.6622 4.087158,-0.98975 18.445161,-3.7309 18.445161,-3.7309 32.697631,-14.81397 0.40606,-0.7889 0.81211,-1.57781 1.23047,-2.39062 0.62842,-1.19883 0.62842,-1.19883 1.26953,-2.42188 0.30293,-0.60328 0.60586,-1.20656 0.91797,-1.82812 1.02094,1.05187 1.02094,1.05187 2.0625,2.125 0.70189,0.68643 0.70189,0.68643 1.41797,1.38672 0.98145,0.96126 1.94421,1.94216 2.88281,2.94531 5.73312,5.6146 13.23661,7.85722 20.63672,10.54297 0,0.33 0,0.66 0,1 -0.74008,0.0845 -1.48017,0.16903 -2.24268,0.2561 C 109.56232,171.05141 69.465831,179.12574 30,192 c -1.09957,0.35433 -2.199141,0.70866 -3.332031,1.07373 -19.5549032,6.33997 -39.171688,13.81361 -57.410156,23.37549 -1.075079,0.51176 -2.150157,1.02351 -3.257813,1.55078 -0.66,-0.33 -1.32,-0.66 -2,-1 1.477645,-2.31348 2.957036,-4.62582 4.4375,-6.9375 0.631318,-0.98903 0.631318,-0.98903 1.275391,-1.99805 3.173828,-4.95117 3.173828,-4.95117 4.287109,-6.06445 0.07462,-2.40679 0.08368,-4.78397 0.05055,-7.19017 -0.0064,-0.76151 -0.0127,-1.52301 -0.01924,-2.3076 -0.01451,-1.67783 -0.03132,-3.35564 -0.05006,-5.03343 -0.04099,-3.68418 -0.0709,-7.36844 -0.101451,-11.05272 -0.01652,-1.98544 -0.0336,-3.97087 -0.05119,-5.9563 -0.110648,-12.73687 -0.141526,-25.47406 -0.175319,-38.21134 -0.03336,-12.40962 -0.09214,-24.81779 -0.232637,-37.226711 -0.111361,-9.848067 -0.166146,-19.694603 -0.154433,-29.543319 0.0041,-5.213069 -0.02004,-10.422517 -0.112533,-15.634841 -0.08641,-4.910773 -0.09732,-9.81605 -0.05152,-14.727314 0.0036,-1.79719 -0.01995,-3.594682 -0.07337,-5.391081 -0.369804,-13.179216 -0.369804,-13.179216 3.518994,-17.408468 3.810057,-3.0773771 7.981519,-5.2965119 12.412878,-7.3452448 C -8.9886808,3.994608 -7.0585252,2.9010877 -5.1050482,1.7436609 -2,0 -2,0 0,0 Z"
         fill="#bf6f53"
         transform="translate(317,480)"
         id="path11" />
      <path
         d="m 479.70171,520.55256 c 9.45323,3.00247 9.45323,3.00247 13.99105,4.9406 1.44146,0.59928 1.44146,0.59928 2.91204,1.21066 1.98234,0.83062 3.96042,1.67051 5.93426,2.51929 0.95855,0.3949 1.91711,0.7898 2.90471,1.19665 0.8569,0.36286 1.71381,0.72572 2.59669,1.09957 5.68834,1.43683 10.57514,-0.52976 15.80465,-2.65663 0.59134,-0.23731 1.18269,-0.47463 1.79196,-0.71914 1.86745,-0.75058 3.73029,-1.51088 5.59281,-2.27251 1.87992,-0.76331 3.76073,-1.52448 5.64317,-2.2821 1.69621,-0.68346 3.38949,-1.37351 5.08262,-2.06389 2.61161,-0.9725 2.61161,-0.9725 4.49177,-0.9725 0,9.75468 0,19.50936 0,29.55964 -8.16695,3.30306 -8.16695,3.30306 -10.7143,4.31318 -5.69495,2.35932 -9.2945,5.02604 -12.78772,10.01876 -0.63621,3.81046 0.062,5.79427 2.3502,8.8455 0.77081,0.94255 1.55019,1.87903 2.3502,2.79921 -11.08854,3.50183 -18.25593,4.33786 -29.1425,0 0.62046,-0.72052 1.24091,-1.44103 1.88016,-2.18338 2.49819,-3.60042 2.77102,-7.06313 1.88017,-11.25282 -4.52054,-6.61486 -15.28643,-9.56943 -22.56194,-12.54045 0,-9.75468 0,-19.50936 0,-29.55964 z"
         fill="#a1a954"
         id="path14"
         style="stroke-width:0.917646" />
      <g
         id="g46"
         style="stroke:#000000;stroke-width:3.8;stroke-dasharray:none;stroke-opacity:1">
        <path
           d="m 0,0 c 15.041652,11.344974 25.995338,29.976691 29.6875,48.4375 0.867501,9.889513 0.68582,17.728265 -5.5,25.980469 -8.761057,9.614615 -21.9821158,14.777677 -34.808594,15.898437 -9.384039,0.302711 -9.384039,0.302711 -13.285156,-2.125 C -26,86 -26,86 -26.125,82.5 c 2.337823,-7.273226 10.351896,-9.896922 16.75,-13.1875 0.9539062,-0.498223 1.9078125,-0.996445 2.890625,-1.509766 C 0.55966538,64.146778 0.55966538,64.146778 4,63 3.67,62.01 3.34,61.02 3,60 1.515,59.505 1.515,59.505 0,59 0,47.45 0,35.9 0,24 c -9.9688422,3.793324 -9.9688422,3.793324 -19.746094,7.929687 -1.656123,0.727032 -1.656123,0.727032 -3.345703,1.46875 -2.262032,0.998306 -4.519767,2.006397 -6.773437,3.023438 -1.095059,0.476953 -2.190118,0.953906 -3.31836,1.445312 -0.975095,0.434253 -1.95019,0.868506 -2.954834,1.315918 -5.618497,1.603916 -10.128238,-0.535702 -15.291259,-2.800293 -1.207852,-0.524648 -2.415704,-1.049296 -3.660157,-1.589843 -1.261872,-0.555642 -2.523589,-1.111634 -3.785156,-1.667969 -1.873752,-0.820342 -3.748338,-1.638707 -5.62381,-2.455109 -1.707557,-0.744226 -3.412797,-1.493763 -5.117889,-2.243621 C -73.36817,26.844794 -77.188025,25.429491 -81,24 c 0,11.55 0,23.1 0,35 -1.485,0.495 -1.485,0.495 -3,1 1.340879,4.022637 3.839265,4.901492 7.375,6.8125 0.940331,0.524487 0.940331,0.524487 1.899658,1.05957 2.978167,1.654747 5.977582,3.260228 8.994873,4.842774 0.96293,0.506601 1.92586,1.013203 2.917969,1.535156 1.289707,0.657422 1.289707,0.657422 2.605469,1.328125 C -57.788255,77.136416 -56.474746,78.538867 -55,81 c -0.141941,2.909787 -0.573204,4.456805 -2.375,6.75 C -62.422661,91.632816 -70.037697,90.51642 -76,90 -86.877571,87.789816 -98.806133,83.010893 -105.75,74.035156 -111.58198,64.539972 -112.21444,55.022882 -110,44.3125 -106.76747,32.586937 -100.42985,21.550117 -93,12 c 0.444727,-0.608438 0.889453,-1.216875 1.347656,-1.84375 C -69.269754,-18.55611 -28.237829,-19.617369 0,0 Z"
           fill="#82BDD1"
           transform="translate(554,487)"
           id="path7"
           style="fill:#ebcbb7;fill-opacity:1;stroke:#000000;stroke-width:3.8;stroke-dasharray:none;stroke-opacity:1" />
        <path
           d="M 0,0 C 10.482273,0.71864283 19.919988,2.1142383 29.720215,6.0551758 37.68809,9.0971854 44.056319,7.6051046 51.875,4.5625 60.694121,1.3331741 69.690978,0.67137186 79,0 c 0,4.62 0,9.24 0,14 2.31,0 4.62,0 7,0 8.076172,2.043079 14.7581,6.320582 19.4375,13.25 2.58554,5.070337 2.51281,10.572929 0.90234,15.957031 -3.32602,7.530345 -8.773178,11.358873 -16.21484,14.480469 -15.845384,5.449848 -31.521916,5.844372 -48.124756,5.813477 -3.664298,-9.71e-4 -7.326482,0.04075 -10.990478,0.08496 C 19.727206,63.645279 8.8439434,63.267536 -2.2070313,60.84375 -3.0718864,60.657924 -3.9367416,60.472097 -4.8278046,60.28064 -14.040189,57.979431 -21.562437,52.808697 -27,45 c -2.683697,-4.5595 -2.834478,-8.833822 -2,-14 3.052679,-7.511514 8.712026,-11.841878 16,-15 3.9899951,-1.242168 7.9004117,-2.141947 12,-3 0.33,-4.29 0.66,-8.58 1,-13 z"
           fill="#82BDD0"
           transform="translate(474,580)"
           id="path9"
           style="fill:#ebcbb7;fill-opacity:1;stroke:#000000;stroke-width:3.8;stroke-dasharray:none;stroke-opacity:1" />
        <path
           d="M 0,0 C 5.8644944,5.1470296 9.5058008,10.959921 10.46875,18.832031 10.54555,28.613996 9.7069409,35.782991 2.9453125,43.277344 -3.9142551,49.840217 -9.4470831,52.092306 -18.875,52.5 c -8.639241,-0.212516 -14.645975,-2.987047 -21,-8.75 -5.963455,-6.427592 -8.507684,-14.691132 -8.324219,-23.328125 C -47.433434,11.112337 -42.731454,5.2378138 -36,-1 -24.95818,-9.3251821 -10.889557,-7.4118231 0,0 Z"
           fill="#81BDD2"
           id="path15"
           transform="translate(532,415)"
           style="fill:#ebcbb7;fill-opacity:1;stroke:#000000;stroke-width:3.8;stroke-dasharray:none;stroke-opacity:1" />
      </g>
      <g
         id="g49"
         style="fill:#999999">
        <path
           d="M 0,0 C 5.4114382,2.2239779 10.61809,4.8668118 15.3125,8.375 21.33665,12.017509 29.413129,9.3812609 36.005859,8.1542969 54.197844,5.0230149 73.115269,5.7148038 91.5,5.6875 c 0.675989,-0.00115 1.351977,-0.0023 2.04845,-0.00349 20.70141,-0.024409 40.88522,0.6261283 61.35957,3.9801712 3.10813,0.4989338 6.22199,0.9576958 9.33574,1.4200448 C 181.2443,13.611974 198.20327,16.329762 215,20 c -1.4075,10.482135 -3.61939,20.703297 -6,31 -5.97615,-1.500135 -11.78186,-3.236771 -17.5625,-5.375 -7.66631,-2.796147 -15.4634,-4.931834 -23.33887,-7.051758 C 165.17907,37.775763 162.27825,36.917228 159.375,36.0625 156.91849,35.367419 154.46071,34.67984 152,34 151.22141,33.78231 150.44281,33.564619 149.64062,33.340332 136.4268,29.694017 123.13555,26.998768 109.625,24.75 108.88208,24.625303 108.13915,24.500607 107.37372,24.372131 89.462745,21.389362 72.045292,19.689267 53.875,19.875 52.126307,19.88507 50.377609,19.89419 48.628906,19.90234 44.419124,19.923988 40.209629,19.958282 36,20 c 4.603158,0.880341 9.207417,1.75479 13.8125,2.625 0.712882,0.134717 1.425764,0.269434 2.160248,0.408234 10.37401,1.955362 20.762335,3.793672 31.173401,5.54013 28.360861,4.767095 56.374211,10.584115 84.276701,17.543823 4.08038,1.007006 8.17055,1.965115 12.26489,2.913331 9.39855,2.180605 18.66045,4.713071 27.92163,7.414794 6.79362,1.976645 13.626,3.809782 20.4607,5.638428 0.87793,0.236624 1.75586,0.473247 2.6604,0.717041 1.16632,0.311913 1.16632,0.311913 2.3562,0.630127 C 235,64 235,64 237,65 c 0.13444,7.630627 -0.24342,15.096158 -1,22.6875 -0.0954,0.999668 -0.19078,1.999336 -0.28906,3.029297 C 235.47857,93.145017 235.24154,95.572679 235,98 c -4.12306,-1.287362 -7.88381,-2.83313 -11.72656,-4.800781 -1.09933,-0.558245 -2.19866,-1.11649 -3.3313,-1.691651 -0.86983,-0.444258 -0.86983,-0.444258 -1.75723,-0.897491 C 174.80734,68.498904 128.38352,46.808151 80.5625,36.3125 79.622129,36.100449 78.681758,35.888398 77.712891,35.669922 70.348623,34.024768 63.559113,32.86967 56,33 c 0.530288,0.31002 1.060576,0.620039 1.606934,0.939453 11.143725,6.525242 22.220553,13.146153 33.205566,19.935547 9.5129,5.879461 19.06837,11.680118 28.66699,17.418457 7.13345,4.266956 14.24309,8.571709 21.34186,12.896027 11.35602,6.916835 22.76493,13.739052 34.20767,20.511386 9.56906,5.66481 19.10014,11.38745 28.59598,17.17413 9.02994,5.50236 18.09191,10.94307 27.20581,16.30518 10.1656,5.98394 20.27233,12.06557 30.38159,18.14404 3.84438,2.31107 7.69087,4.61862 11.5376,6.92578 3.75,2.25 7.5,4.5 11.25,6.75 -1.56293,4.26769 -3.66992,8.13896 -5.9375,12.0625 -0.3474,0.61166 -0.6948,1.22332 -1.05273,1.85352 -1.82841,3.18507 -3.72236,6.20858 -6.00977,9.08398 -3.82366,-1.411 -7.15612,-3.18849 -10.62891,-5.31641 -1.10247,-0.67273 -2.20494,-1.34546 -3.34082,-2.03857 -0.58398,-0.35882 -1.16797,-0.71765 -1.76965,-1.08734 -1.8618,-1.14394 -3.72637,-2.28324 -5.59167,-3.42145 -2.6064,-1.591 -5.21166,-3.18383 -7.81592,-4.77832 -5.86133,-3.58806 -11.73073,-7.16283 -17.60303,-10.73291 -0.56731,-0.34505 -1.13462,-0.69009 -1.71912,-1.04559 -10.25786,-6.23586 -20.57452,-12.37017 -30.90368,-18.487 -11.26751,-6.67383 -22.47538,-13.43912 -33.64722,-20.2721 -5.71637,-3.49183 -11.44192,-6.96857 -17.16748,-10.44531 -0.59962,-0.36418 -1.19923,-0.72836 -1.81702,-1.10358 C 131.67614,109.8267 124.34761,105.39789 117,101 109.1486,96.30052 101.32032,91.563476 93.5,86.8125 92.618961,86.277257 92.618961,86.277257 91.720123,85.731201 88.096157,83.529354 84.472619,81.326802 80.849182,79.124084 75.295917,75.748355 69.742,72.373698 64.1875,69 63.589778,68.636938 62.992056,68.273875 62.376221,67.899811 54.989798,63.413883 47.592322,58.947699 40.175781,54.511719 32.197698,49.724869 24.255567,44.877553 16.30777,40.040619 14.604212,39.006488 12.89662,37.979012 11.188965,36.95166 9.1358877,35.695168 7.1026572,34.405343 5.0961914,33.075684 4.2252685,32.508013 3.3543457,31.940342 2.4570313,31.355469 1.7104224,30.850398 0.96381348,30.345327 0.19458008,29.824951 -2.0394882,28.736706 -2.0394882,28.736706 -4.5595703,29.730225 c -3.0035071,1.559612 -3.0035071,1.559612 -5.9443357,3.230712 -0.647029,0.382369 -1.294058,0.764737 -1.960694,1.158692 -1.03846,0.621409 -1.03846,0.621409 -2.0979,1.255371 -0.743225,0.441343 -1.48645,0.882686 -2.252197,1.337402 C -19.212027,38.137896 -21.606048,39.568843 -24,41 c -1.549418,0.921978 -3.098897,1.843854 -4.648437,2.765625 -10.516414,6.271027 -20.950004,12.671625 -31.369385,19.102295 -8.448708,5.206841 -16.943154,10.332833 -25.461182,15.425293 -7.134288,4.267347 -14.244696,8.572598 -21.344266,12.897369 -11.51328,7.013099 -23.08458,13.922178 -34.6875,20.785858 -8.86538,5.24684 -17.67063,10.57228 -26.40549,16.03455 -7.91533,4.92899 -15.93416,9.67848 -23.95874,14.42651 -12.09633,7.15826 -24.13696,14.39879 -36.12744,21.7334 -3.35321,2.04612 -6.71181,4.08317 -10.07178,6.11816 -1.22705,0.74341 -2.4541,1.48681 -3.68115,2.23023 -1.83073,1.10914 -3.6615,2.21822 -5.49249,3.32693 -7.82294,4.73871 -15.62366,9.50885 -23.31244,14.46335 C -274.78633,193 -274.78633,193 -277,193 c -1.54809,-2.34903 -2.97847,-4.68792 -4.375,-7.125 -0.7772,-1.33678 -1.55583,-2.67273 -2.33594,-4.00781 -0.37866,-0.6513 -0.75732,-1.3026 -1.14746,-1.97364 -1.08571,-1.80084 -2.23675,-3.53036 -3.43066,-5.26074 C -290,172 -290,172 -290,170 c 2.34473,-1.59717 2.34473,-1.59717 5.64063,-3.49219 0.58904,-0.34169 1.17809,-0.68338 1.78498,-1.03543 1.2722,-0.73688 2.54636,-1.47038 3.82222,-2.2009 2.01561,-1.15418 4.02604,-2.31692 6.03513,-3.48242 2.0217,-1.17278 4.04364,-2.34512 6.06712,-3.51483 5.26607,-3.0443 10.50163,-6.13612 15.71242,-9.27423 1.16499,-0.70057 1.16499,-0.70057 2.35352,-1.41528 4.64376,-2.79818 9.27708,-5.61334 13.9082,-8.43238 1.72014,-1.0469 3.44028,-2.09381 5.16049,-3.14059 1.17572,-0.71547 2.35136,-1.43107 3.52692,-2.14679 10.56385,-6.42877 21.19177,-12.74594 31.83468,-19.04272 7.6774,-4.5442 15.32742,-9.1153 22.85511,-13.90476 7.23323,-4.567031 14.62326,-8.876548 21.98608,-13.22998 8.98927,-5.315201 17.95898,-10.647744 26.8125,-16.1875 9.50274,-5.944042 19.13673,-11.657511 28.782715,-17.364655 C -83.088836,45.84669 -72.505361,39.492897 -62,33 -119.35201,34.076574 -184.28365,68.22489 -233.37158,95.614014 -236.1602,97.151626 -237.75386,98 -241,98 c -0.34199,-3.436695 -0.67193,-6.874451 -1,-10.3125 -0.0954,-0.957129 -0.19078,-1.914258 -0.28906,-2.900391 C -242.91282,78.170807 -243.11706,71.644142 -243,65 c 11.00272,-3.189649 22.01552,-6.301493 33.10596,-9.172363 6.47515,-1.68817 12.88091,-3.565975 19.28076,-5.519043 11.8865,-3.476613 24.03163,-6.177409 36.11328,-8.871094 0.73213,-0.163358 1.46425,-0.326717 2.21857,-0.495026 30.60399,-6.794747 61.429736,-12.918272 92.34393,-18.129974 1.156128,-0.196179 2.312256,-0.392358 3.503418,-0.594482 C -51.220987,21.374165 -46.281207,20.782759 -41,21 c 0,-0.66 0,-1.32 0,-2 -5.118918,0.120168 -10.237713,0.244489 -15.356445,0.372314 -1.733698,0.04275 -3.467422,0.08445 -5.201172,0.125 C -67.372916,19.633768 -73.186579,19.798509 -79,20 c -0.699679,0.02326 -1.399358,0.04653 -2.120239,0.0705 -11.406474,0.418258 -22.418381,2.148816 -33.629761,4.179504 -0.88185,0.157175 -1.7637,0.31435 -2.67227,0.476288 -11.91858,2.127184 -23.76648,4.354378 -35.42294,7.664337 -2.2397,0.633387 -4.48693,1.232052 -6.73682,1.828125 -13.68484,3.701028 -27.08871,8.264271 -40.50781,12.818604 -1.15687,0.391152 -1.15687,0.391152 -2.33712,0.790206 -1.4656,0.495971 -2.93031,0.994573 -4.39401,1.496125 C -211.77646,51 -211.77646,51 -214,51 c -0.25395,-1.027383 -0.50789,-2.054766 -0.76953,-3.113281 -0.34741,-1.399801 -0.69509,-2.799536 -1.04297,-4.199219 -0.18015,-0.726064 -0.36029,-1.452129 -0.5459,-2.200195 -1.27682,-5.114062 -2.64873,-10.192593 -4.12597,-15.25293 C -221,24 -221,24 -221,20 c 30.33035,-6.82765 60.991,-11.7030369 92,-14 0.95149,-0.070576 1.90298,-0.1411523 2.8833,-0.2138672 29.465125,-2.0507856 59.605871,-1.7283941 88.765626,3.248291 8.568713,1.4511382 13.81558,1.3463132 21.163574,-3.4719238 1.31894,-0.8321428 2.637947,-1.6641791 3.957031,-2.4960937 C -10.631387,2.0435352 -10.631387,2.0435352 -9,1 -5.9173777,-0.54131117 -3.3223203,-0.61396938 0,0 Z"
           fill="#C16F54"
           transform="translate(515,322)"
           id="path6"
           style="fill:#999999" />
        <path
           d="M 0,0 C -0.95531616,0.44315552 -0.95531616,0.44315552 -1.9299316,0.89526367 -17.715163,8.253612 -32.969763,16.207794 -48,25 c -0.934731,0.543018 -1.869463,1.086035 -2.83252,1.645508 -32.907305,19.127265 -64.79829,40.145167 -95.23047,63.014648 -0.72558,0.542696 -1.45116,1.085391 -2.19873,1.644531 -0.94299,0.711321 -0.94299,0.711321 -1.90503,1.437012 C -152.04267,94.029286 -153.9436,95.031914 -156,96 c -1.27601,-2.49747 -2.54586,-4.997779 -3.8125,-7.5 -0.35643,-0.696094 -0.71285,-1.392188 -1.08008,-2.109375 C -163.2671,81.685146 -165.22775,76.964537 -167,72 c 11.38638,-6.736949 23.09852,-12.729207 34.9375,-18.625 1.45322,-0.724992 1.45322,-0.724992 2.93579,-1.46463 C -112.26466,43.509297 -95.300117,35.456033 -78,28 c 0.686728,-0.297169 1.373456,-0.594338 2.080994,-0.900513 C -7.4890718,-2.4963573 -7.4890718,-2.4963573 0,0 Z"
           fill="#C17054"
           transform="translate(421,366)"
           id="path17"
           style="fill:#999999" />
        <path
           d="m 0,0 c 4.560928,0.74161886 8.7936748,2.2470286 13.121094,3.8164063 0.799742,0.2879141 1.599485,0.5758282 2.423462,0.872467 2.633212,0.9518584 5.263473,1.9114821 7.892944,2.8736267 1.358486,0.496284 1.358486,0.496284 2.744415,1.002594 C 54.69151,19.014663 82.595832,30.927488 110,44 c 1.15226,0.548657 2.30452,1.097314 3.4917,1.662598 16.47214,7.854204 32.82909,15.93117 49.12768,24.13916 C 164.7445,70.871397 166.87149,71.937135 169,73 c -0.63237,2.864841 -1.53135,5.33243 -2.8125,7.96875 -0.3532,0.736055 -0.70641,1.472109 -1.07031,2.230469 -0.74479,1.533854 -1.48959,3.067708 -2.23438,4.601562 -0.3532,0.736055 -0.7064,1.47211 -1.07031,2.230469 -0.48533,0.998701 -0.48533,0.998701 -0.98047,2.017578 C 159.99393,94.014243 159.45988,95.916616 159,98 c -2.679,-1.279074 -5.09596,-2.675331 -7.51172,-4.398438 -0.66588,-0.472763 -1.33176,-0.945527 -2.01782,-1.432617 -0.71213,-0.509502 -1.42425,-1.019004 -2.15796,-1.543945 -0.75402,-0.535283 -1.50804,-1.070566 -2.28491,-1.62207 -3.03606,-2.155576 -6.06799,-4.316856 -9.09693,-6.482422 C 117.05575,69.030468 97.725167,56.212124 78,44 77.125854,43.45666 76.251709,42.91332 75.351074,42.353516 51.14937,27.340328 26.250203,12.207952 0,1 0,0.67 0,0.34 0,0 Z"
           fill="#C17055"
           transform="translate(601,364)"
           id="path18"
           style="fill:#999999" />
      </g>
      <path
         d="m 0,0 c 1.64819,2.1191014 3.0456854,4.0913708 4.25,6.5 7.37114,10.5302 27.362601,11.612669 39.217529,13.79248 2.466325,0.456845 4.927853,0.935216 7.389893,1.414551 10.596185,2.003026 21.51486,3.850628 32.239014,1.660645 3.382773,-0.428358 4.959734,0.0936 8.044189,1.483886 0.975417,0.432723 1.950835,0.865445 2.955811,1.31128 C 95.65745,26.88661 95.65745,26.88661 97.25,27.625 c 1.090305,0.493469 2.18061,0.986938 3.30396,1.495361 11.36649,5.197433 22.56906,10.721376 33.66918,16.463623 2.39568,1.22164 4.80666,2.385221 7.2417,3.525391 C 150.60431,53.563641 155.35448,59.646843 159,69 c -0.33,0.66 -0.66,1.32 -1,2 -0.59385,-0.2902 -1.18771,-0.5804 -1.79956,-0.879395 C 130.56105,57.698917 103.75177,46.543313 76.087402,39.530762 74.089415,39.022736 72.100983,38.488139 70.113281,37.941406 66.415934,36.93161 62.710152,35.961611 59,35 58.286504,34.81083 57.573008,34.62166 56.837891,34.426758 28.602457,26.952672 -0.10862693,22.956123 -29,19 c 2.975769,-1.983846 5.225314,-2.748542 8.625,-3.75 C -11.221913,12.250621 -5.0915386,8.2121591 0,0 Z"
         fill="#40654e"
         transform="translate(583,627)"
         id="path19" />
      <path
         d="M 0,0 C 0.680625,0.70125 1.36125,1.4025 2.0625,2.125 2.5304297,2.5826172 2.9983594,3.0402344 3.4804688,3.5117188 4.4619184,4.4729843 5.4246803,5.4538847 6.3632812,6.4570312 12.096399,12.071635 19.599895,14.314248 27,17 c 0,0.33 0,0.66 0,1 -1.110125,0.126771 -1.110125,0.126771 -2.242676,0.256104 C -16.437683,23.051406 -56.534169,31.125741 -96,44 c -1.09957,0.354331 -2.199141,0.708662 -3.332031,1.07373 -19.554899,6.339974 -39.171689,13.813613 -57.410159,23.375489 -1.07508,0.511758 -2.15015,1.023515 -3.25781,1.550781 -0.66,-0.33 -1.32,-0.66 -2,-1 1.28925,-2.224942 2.60397,-4.426775 3.9375,-6.625 0.53077,-0.926191 0.53077,-0.926191 1.07227,-1.871094 5.38844,-8.750461 14.99975,-12.763313 23.86523,-17.316406 0.99363,-0.511919 1.98725,-1.023838 3.01099,-1.55127 3.03344,-1.554557 6.07296,-3.096615 9.11401,-4.63623 1.4108,-0.721472 1.4108,-0.721472 2.8501,-1.45752 2.60352,-1.324792 5.21747,-2.6255 7.8374,-3.91748 1.17442,-0.599052 1.17442,-0.599052 2.37256,-1.210205 2.20166,-1.063233 2.20166,-1.063233 5.93994,-2.414795 1.98364,0.790527 1.98364,0.790527 4,2 8.337377,4.841058 19.440767,1.615793 28.25,-0.5 1.140981,-0.264822 2.281963,-0.529644 3.45752,-0.80249 3.106214,-0.727543 6.208655,-1.46891 9.309448,-2.219177 2.045721,-0.493454 4.092812,-0.980859 6.140259,-1.467103 3.549453,-0.844371 7.095743,-1.701031 10.640014,-2.566894 1.361832,-0.332197 2.724202,-0.662193 4.087158,-0.989746 C -17.670437,17.723693 -17.670437,17.723693 -3.4179688,6.640625 -3.0119141,5.8517187 -2.6058594,5.0628125 -2.1875,4.25 -1.7685547,3.4507813 -1.3496094,2.6515625 -0.91796875,1.828125 -0.61503906,1.2248437 -0.31210937,0.6215625 0,0 Z"
         fill="#3e644e"
         transform="translate(443,628)"
         id="path21" />
      <path
         d="m 375.54229,561.55256 c 6.16027,1.88884 11.87445,4.21321 17.72943,6.86239 4.34355,1.44448 7.3989,0.21641 11.48909,-1.51176 0.74637,-0.31111 1.49274,-0.62221 2.26173,-0.94273 0.76718,-0.32456 1.53436,-0.64911 2.32479,-0.9835 1.53459,-0.64715 3.07039,-1.29163 4.60755,-1.93302 0.67606,-0.28594 1.35211,-0.57189 2.04865,-0.8665 1.69696,-0.62488 1.69696,-0.62488 3.49092,-0.62488 0.13007,3.13414 0.20987,6.26762 0.28031,9.40351 0.0376,0.8907 0.0752,1.7814 0.11387,2.69909 0.0408,2.41371 0.0268,4.65069 -0.39418,7.03055 -2.00069,1.78014 -2.00069,1.78014 -4.48491,2.60906 -0.69608,0.35763 -1.39215,0.71526 -2.10931,1.08372 -1.3622,0.69214 -2.72638,1.38064 -4.09249,2.06551 -2.09294,1.34144 -3.235,2.6234 -4.562,4.67797 -0.43702,2.82481 -0.26849,3.94712 1.34548,6.3596 0.444,0.48431 0.88801,0.96861 1.34547,1.4676 -6.49352,2.86178 -11.23788,3.08854 -17.99572,0.81533 -0.57351,-0.26906 -1.14701,-0.53812 -1.7379,-0.81533 0.4625,-0.44844 0.92501,-0.89687 1.40153,-1.35889 1.56281,-2.14681 1.56281,-2.14681 1.23336,-5.16378 -0.96328,-3.48679 -1.452,-4.41075 -4.42886,-6.52266 -2.32414,-1.17694 -4.66383,-2.28772 -7.04622,-3.34966 -1.92361,-0.99878 -1.92361,-0.99878 -2.82059,-2.73816 -0.0754,-1.3867 -0.0962,-2.7764 -0.0876,-4.16499 0.003,-0.81839 0.006,-1.63678 0.009,-2.47997 0.008,-0.85651 0.015,-1.71302 0.0228,-2.59548 0.004,-0.86323 0.008,-1.72647 0.0123,-2.61586 0.0106,-2.13577 0.0254,-4.27144 0.0438,-6.40716 z"
         fill="#a1aa53"
         id="path22"
         style="stroke-width:0.88323" />
      <g
         id="g47"
         style="stroke:#000000;stroke-width:3.8;stroke-dasharray:none;stroke-opacity:1">
        <path
           d="M 0,0 C 2.7695313,1.3984375 2.7695313,1.3984375 5.4375,3 6.3901172,3.5697656 7.3427344,4.1395312 8.3242188,4.7265625 19.000965,11.805551 26.149129,22.011568 29.015625,34.523437 30.313217,42.140782 29.631589,48.377095 25.4375,55 c -6.270017,7.702166 -16.4363408,11.000651 -26,12 -5.3372093,0.418605 -5.3372093,0.418605 -8.375,-1.5 -0.53625,-0.495 -1.0725,-0.99 -1.625,-1.5 -0.05859,-2.675781 -0.05859,-2.675781 1,-6 2.7393859,-2.182118 5.8031571,-3.647949 8.9375,-5.1875 C 1.0332201,51.971263 2.688328,51.123855 4.3398437,50.269531 5.0771069,49.904485 5.8143701,49.539438 6.5739746,49.16333 8.7441553,47.986426 8.7441553,47.986426 10.4375,45 c -0.99,0 -1.98,0 -3,0 0,-7.92 0,-15.84 0,-24 -4.7334375,1.887187 -4.7334375,1.887187 -9.5625,3.8125 -0.9804126,0.390344 -1.9608252,0.780688 -2.9709473,1.182861 -0.7946264,0.317351 -1.5892529,0.634702 -2.4079589,0.96167 -1.3015503,0.515545 -1.3015503,0.515545 -2.6293948,1.041504 -2.113994,0.871518 -4.149406,1.830806 -6.206543,2.825684 -5.418012,1.976753 -9.743057,0.152681 -14.839843,-2.109375 -1.01836,-0.447949 -2.036719,-0.895899 -3.085938,-1.357422 -1.046719,-0.468574 -2.093437,-0.937149 -3.171875,-1.419922 -1.069922,-0.472441 -2.139844,-0.944883 -3.242187,-1.431641 C -43.310064,23.343327 -45.937475,22.174554 -48.5625,21 c 0.0518,4.41763 0.146869,8.833294 0.25,13.25 0.01418,1.254258 0.02836,2.508516 0.04297,3.800781 0.03223,1.205274 0.06445,2.410547 0.09766,3.652344 0.02095,1.110205 0.04189,2.22041 0.06348,3.364258 0.66268,3.55998 1.757435,4.697866 4.545898,6.932617 1.705097,1.000533 3.435577,1.958928 5.1875,2.875 4.666149,2.685948 4.666149,2.685948 5.9375,6.5 -0.04125,0.86625 -0.0825,1.7325 -0.125,2.625 -3.809226,3.27002 -6.36888,3.576535 -11.273437,3.410156 C -51.209874,66.300896 -56.830998,62.505059 -61.40625,56.746094 -65.080015,51.198212 -65.224296,46.559324 -64.5625,40 c 2.934848,-13.338621 10.218637,-25.572519 21,-34 C -30.595783,-2.0048537 -14.734633,-5.7927714 0,0 Z"
           fill="#85BFD1"
           transform="translate(418.5625,533)"
           id="path12"
           style="fill:#ebcbb7;fill-opacity:1;stroke:#000000;stroke-width:3.8;stroke-dasharray:none;stroke-opacity:1" />
        <path
           d="m 0,0 c 0,4.62 0,9.24 0,14 1.32,0.66 2.64,1.32 4,2 2.8515415,3.462586 3.5375534,6.522575 3.3515625,11.011719 C 6.3743002,32.53868 2.3303402,35.881905 -2,39 c -2.6640625,1.089844 -2.6640625,1.089844 -5.625,1.9375 -1.1511328,0.331289 -2.3022656,0.662578 -3.488281,1.003906 C -12.408271,42.296404 -13.703874,42.649171 -15,43 c -0.683687,0.186753 -1.367373,0.373506 -2.071777,0.565918 C -22.701452,45.095264 -28.348317,46.554433 -34,48 c -0.975659,0.250723 -1.951318,0.501445 -2.956543,0.759766 C -77.15041,59.06228 -77.15041,59.06228 -84.5,55.125 c -2.460676,-2.406296 -3.067573,-4.472103 -3.375,-7.875 0.393269,-5.301267 2.355397,-8.344504 6.054688,-12.070313 C -74.4634,29.493874 -66.142603,25.523767 -57,24 c 0,-6.93 0,-13.86 0,-21 6.462757,1.0771261 12.529869,2.330773 18.710938,4.5117187 C -33.554285,8.521697 -28.959887,6.4259044 -24.4375,5.0625 -18.761042,3.4116018 -13.176736,2.2311642 -7.328125,1.3945312 -4.491411,0.91381293 -2.965677,0 0,0 Z"
           fill="#84BED1"
           transform="translate(432,600)"
           id="path13"
           style="fill:#ebcbb7;fill-opacity:1;stroke:#000000;stroke-width:3.8;stroke-dasharray:none;stroke-opacity:1" />
        <path
           d="m 0,0 c 5.9330662,2.7392126 10.020979,7.2641707 12.539063,13.316406 0.94091,7.045886 0.318625,13.229206 -4.0000005,19 -4.7568973,5.061249 -9.28729402,7.990715 -16.3125,8.375 C -13.584725,40.5273 -17.978151,38.639546 -22.222656,34.667969 -27.446479,28.874964 -28.946761,23.798077 -28.769531,16.03125 -28.007353,9.3260084 -24.093866,5.601811 -19.046875,1.4804687 -13.914071,-2.2869585 -5.9127835,-1.6424398 0,0 Z"
           fill="#83BED1"
           transform="translate(409.46094,485.68359)"
           id="path23"
           style="fill:#ebcbb7;fill-opacity:1;stroke:#000000;stroke-width:3.8;stroke-dasharray:none;stroke-opacity:1" />
      </g>
      <path
         d="m 602.70171,576.40342 c 5.22171,1.60293 9.90872,3.1498 14.82533,5.25364 6.05733,1.46709 11.41575,-1.22995 16.81848,-3.52351 2.55581,-1.06122 4.27845,-1.73013 7.12039,-1.73013 0.0393,2.67578 0.0526,5.34715 0.0211,8.02315 -0.0154,2.01328 0.0439,4.0274 0.1479,6.03845 -1.59929,3.79832 -4.68205,4.66855 -8.58532,6.3141 -2.52246,1.2705 -3.68998,2.24596 -5.10611,4.53046 0.25409,2.39846 0.97466,4.35315 1.80299,6.64164 -5.47428,1.64617 -10.57264,2.49648 -16.22687,0.8302 0,-0.54793 0,-1.09587 0,-1.66041 0.46483,-0.35958 0.92966,-0.71916 1.40858,-1.08964 1.542,-1.35117 1.542,-1.35117 1.23955,-3.4246 -2.2116,-5.56702 -8.00843,-7.21849 -13.46605,-9.59925 0,-5.47935 0,-10.95871 0,-16.6041 z"
         fill="#a4ac57"
         id="path24"
         style="stroke-width:0.865115" />
      <g
         id="g48"
         style="stroke:#000000;stroke-width:3.8;stroke-dasharray:none;stroke-opacity:1">
        <path
           d="M 0,0 C 1.0616638,0.00845947 1.0616638,0.00845947 2.1447754,0.01708984 13.677083,0.28426796 22.354905,5.0635862 30.3125,13.3125 c 6.893716,8.095627 12.316507,18.642136 12.144531,29.367187 -0.515293,5.033448 -2.186407,8.890966 -6.105469,12.167969 -6.096884,4.00619 -11.785633,6.021707 -19.164062,5.464844 -3,-2 -3,-2 -3.6875,-4.3125 0.838427,-3.277488 1.581587,-3.567934 4.375,-5.3125 1.427341,-0.809839 2.864489,-1.602727 4.3125,-2.375 4.12077,-2.040445 4.12077,-2.040445 6,-6 0.148359,-1.77167 0.2477,-3.547676 0.316406,-5.324219 0.0419,-1.028027 0.08379,-2.056054 0.126953,-3.115234 0.03932,-1.071856 0.07863,-2.143711 0.119141,-3.248047 0.06478,-1.625186 0.06478,-1.625186 0.130859,-3.283203 0.106109,-2.676305 0.208165,-5.352702 0.306641,-8.029297 -0.670554,0.308166 -1.341108,0.616333 -2.031982,0.933838 C 24.109852,21.636573 21.05523,23.00592 18,24.375 c -1.055098,0.485332 -2.110195,0.970664 -3.197266,1.470703 -1.021582,0.454395 -2.043164,0.908789 -3.095703,1.376953 -0.93739,0.424182 -1.87478,0.848365 -2.8405759,1.285401 C 4.0763185,29.946451 0.34879439,28.098768 -4.1132812,26.246094 -5.0897461,25.843262 -6.0662109,25.44043 -7.0722656,25.025391 -8.079668,24.604512 -9.0870703,24.183633 -10.125,23.75 c -1.026738,-0.424746 -2.053477,-0.849492 -3.111328,-1.287109 -2.527068,-1.046089 -5.051847,-2.097703 -7.576172,-3.150391 0,6.93 0,13.86 0,21 -0.66,0 -1.32,0 -2,0 1.465268,4.538262 5.036711,6.031938 9,8.125 6.7958515,3.670852 6.7958515,3.670852 9,5.875 -0.25,2.5625 -0.25,2.5625 -1,5 -4.454452,2.227226 -9.370351,1.476293 -13.980469,0.128906 -7.153844,-2.765428 -13.966583,-6.331417 -18.195312,-12.976562 -2.339146,-6.108386 -1.66885,-12.795874 0.496094,-18.835938 C -31.854192,15.25512 -23.70497,6.3914501 -10.960938,1.1367187 -7.2729061,0.17124156 -3.7862195,-0.03151806 0,0 Z"
           fill="#A6AE5A"
           transform="translate(617.8125,548.6875)"
           id="path16"
           style="fill:#ebcbb7;fill-opacity:1;stroke:#000000;stroke-width:3.8;stroke-dasharray:none;stroke-opacity:1" />
        <path
           d="M 0,0 C 5.8210561,1.0193554 11.409491,2.3941114 17.0625,4.125 27.15298,7.0173143 33.323588,6.227844 43.277344,2.875 46,2 46,2 48,2 c 0,3.3 0,6.6 0,10 0.86625,0.118594 1.7325,0.237187 2.625,0.359375 8.611569,1.634603 17.448662,5.286528 22.75,12.515625 0.958938,3.260388 1.040116,5.744768 0.625,9.125 -2.482754,3.133772 -4.008287,4.786732 -7.965332,5.637695 C 55.157856,39.448101 44.773229,37.586975 34.136719,35.374512 31.112907,34.747492 28.084576,34.147666 25.054687,33.550781 23.10124,33.155237 21.148102,32.758155 19.195312,32.359375 18.3045,32.183156 17.413687,32.006937 16.49588,31.825378 9.5575463,30.360195 2.5018412,28.626933 -2.5,23.375 -5.0883821,19.276728 -5.7089167,15.822499 -5,11 -3.0625,8.375 -3.0625,8.375 -1,6 -0.20309162,2.8123789 -0.20309162,2.8123789 0,0 Z"
           fill="#A5AD5A"
           transform="translate(593,609)"
           id="path20"
           style="fill:#ebcbb7;fill-opacity:1;stroke:#000000;stroke-width:3.8;stroke-dasharray:none;stroke-opacity:1" />
        <path
           d="M 0,0 C 4.2317443,1.8295135 7.4923429,4.2349108 9.9804688,8.1484375 11.989962,13.334226 11.855044,19.277029 10.09375,24.523437 c -2.5575318,4.863504 -6.0872044,8.08636 -11.265625,9.8125 -5.2674928,0.504423 -9.631792,0.671666 -14.4375,-1.6875 -4.301007,-3.881396 -7.278228,-7.082981 -7.800781,-13.019531 C -23.52319,14.899333 -23.58288,11.277824 -21.671875,6.8984375 -15.313227,0.38082367 -9.0607381,-2.7703696 0,0 Z"
           fill="#A6AE59"
           transform="translate(625.17187,509.66406)"
           id="path25"
           style="fill:#ebcbb7;fill-opacity:1;stroke:#000000;stroke-width:3.8;stroke-dasharray:none;stroke-opacity:1" />
      </g>
      <path
         d="m 0,0 c 0,3 0,3 -1,6 -2.6523438,1.640625 -2.6523438,1.640625 -5.9375,3.25 -1.0815234,0.5414063 -2.1630469,1.082812 -3.277344,1.640625 C -11.133945,11.256719 -12.053047,11.622813 -13,12 c -0.66,-0.33 -1.32,-0.66 -2,-1 2.123427,-1.6478987 4.248645,-3.2933879 6.375,-4.9375 C -8.0217188,5.5939258 -7.4184375,5.1253516 -6.796875,4.6425781 -2.2265625,1.1132812 -2.2265625,1.1132812 0,0 Z"
         fill="#446e58"
         transform="translate(292,717)"
         id="path35" />
      <path
         d="M 0,0 C 2.7987244,2.5278801 4.4577302,4.2041113 5,8 2.5625,7.25 2.5625,7.25 0,6 -0.875,4 -0.875,4 -1,2 -0.67,1.34 -0.34,0.68 0,0 Z"
         fill="#436b56"
         transform="translate(737,690)"
         id="path43" />
    </g>
    <text
       xml:space="preserve"
       style="font-style:normal;font-variant:normal;font-weight:normal;font-stretch:normal;font-size:64px;font-family:Mistral;-inkscape-font-specification:Mistral;text-align:start;letter-spacing:10px;writing-mode:lr-tb;direction:ltr;text-anchor:start;fill:#999999;fill-opacity:1;stroke:none;stroke-width:3.8;stroke-dasharray:none;stroke-opacity:1"
       id="text49"
       inkscape:transform-center-x="-10.362591"
       inkscape:transform-center-y="-258.16218"
       transform="rotate(-120.62596,545.68456,568.77605)"><textPath
         xlink:href="#path50"
         id="textPath50"
         style="font-style:normal;font-variant:normal;font-weight:normal;font-stretch:normal;font-size:64px;font-family:Mistral;-inkscape-font-specification:Mistral;letter-spacing:10px;stroke:none">MULAMPUZHA</textPath></text>
    <g
       id="g51"
       style="stroke:#000000;stroke-width:0.8;stroke-dasharray:none;stroke-opacity:1">
      <ellipse
         style="display:inline;fill:none;fill-opacity:1;stroke:none;stroke-width:6.6;stroke-dasharray:none;stroke-opacity:1"
         id="path50"
         cx="512.23798"
         cy="512.2265"
         rx="371.492"
         ry="371.46149" />
      <ellipse
         style="fill:none;fill-opacity:1;stroke:#000000;stroke-width:5;stroke-dasharray:none;stroke-opacity:1"
         id="ellipse51"
         cx="512.23798"
         cy="-512.2265"
         rx="334.37747"
         ry="334.35001"
         transform="scale(1,-1)" />
    </g>
    <text
       xml:space="preserve"
       style="font-style:normal;font-variant:normal;font-weight:normal;font-stretch:normal;font-size:64px;font-family:Mistral;-inkscape-font-specification:Mistral;text-align:start;letter-spacing:15px;writing-mode:lr-tb;direction:rtl;text-anchor:start;fill:none;fill-opacity:1;stroke:#000000;stroke-width:4;stroke-dasharray:none;stroke-opacity:1"
       id="text51"
       inkscape:transform-center-x="7.3963027"
       inkscape:transform-center-y="272.3507"
       transform="rotate(66.33545,533.9468,496.69996)"><textPath
         xlink:href="#ellipse51"
         startOffset="100%"
         id="textPath51"
         style="letter-spacing:15px;fill:#999999;fill-opacity:1;stroke:none">LIBRARY</textPath></text>
  </g>
</svg>
